<svg width="120" height="25" viewBox="0 0 120 25" fill="none" xmlns="http://www.w3.org/2000/svg">
<g clip-path="url(#clip0_340_95)">
<mask id="mask0_340_95" style="mask-type:luminance" maskUnits="userSpaceOnUse" x="0" y="0" width="120" height="25">
<path d="M120 0H0V25H120V0Z" fill="white"/>
</mask>
<g mask="url(#mask0_340_95)">
<path d="M12.6398 7.54771C12.5521 6.58985 12.1824 5.84635 11.5306 5.3172C10.8789 4.78805 9.99515 4.52462 8.87958 4.5269C8.12156 4.52845 7.48177 4.64854 6.9602 4.88713C6.43861 5.11781 6.03878 5.4393 5.76068 5.85158C5.48972 6.26387 5.35477 6.73128 5.35577 7.25385C5.34231 7.68935 5.42527 8.06923 5.60468 8.39348C5.79124 8.71772 6.04565 8.99827 6.3679 9.23514C6.69015 9.4641 7.06239 9.66524 7.48464 9.83856C7.90687 10.004 8.35767 10.1456 8.83702 10.2634L10.8118 10.7819C11.7705 11.0175 12.6506 11.3324 13.4523 11.7266C14.2541 12.1209 14.9486 12.6064 15.5362 13.1832C16.1237 13.7599 16.5791 14.4399 16.9024 15.223C17.2328 16.0063 17.4026 16.9046 17.4116 17.9181C17.4074 19.4066 17.0666 20.6978 16.3895 21.7919C15.7194 22.878 14.7484 23.7232 13.4766 24.3275C12.2121 24.9239 10.6859 25.224 8.89807 25.2277C7.12461 25.2313 5.5794 24.9335 4.26243 24.3345C2.95262 23.7355 1.9283 22.8468 1.18946 21.6686C0.457756 20.4824 0.0723358 19.0145 0.0332031 17.2648L4.52767 17.2556C4.5793 18.071 4.79156 18.7514 5.16448 19.297C5.54453 19.8347 6.04946 20.2414 6.6793 20.5172C7.31626 20.7851 8.03521 20.9182 8.83612 20.9166C9.62275 20.9149 10.3055 20.7869 10.8842 20.5323C11.4701 20.2779 11.9235 19.9245 12.2445 19.4725C12.5654 19.0205 12.7253 18.5017 12.7242 17.9158C12.7231 17.3694 12.5756 16.9105 12.2817 16.539C11.9949 16.1674 11.5724 15.8516 11.0141 15.5914C10.463 15.3312 9.78671 15.0952 8.98538 14.8831L6.59206 14.2228C4.73896 13.7278 3.27506 12.9509 2.20035 11.8922C1.12564 10.8334 0.590129 9.40533 0.593814 7.60801C0.583819 6.13535 0.935311 4.84801 1.64829 3.746C2.36843 2.64396 3.3572 1.78286 4.61461 1.16271C5.872 0.542563 7.30162 0.230846 8.90347 0.227566C10.534 0.224227 11.9576 0.530101 13.1746 1.14518C14.3986 1.76025 15.3513 2.61738 16.0328 3.71654C16.7143 4.8157 17.0671 6.08972 17.0913 7.5386L12.6398 7.54771ZM29.192 6.59933L29.1993 10.3998L19.2771 10.4201L19.2698 6.61965L29.192 6.59933ZM21.5139 2.2445L26.0834 2.23515L26.1162 19.2423C26.1171 19.7094 26.1822 20.0735 26.3115 20.3344C26.4407 20.5876 26.6198 20.7654 26.8489 20.8678C27.0851 20.9702 27.3569 21.0212 27.6643 21.0206C27.8789 21.0202 28.0933 21 28.3079 20.9598C28.5222 20.912 28.6866 20.8759 28.8011 20.852L29.527 24.6154C29.2983 24.6949 28.9768 24.7866 28.5622 24.8905C28.1476 25.0022 27.6436 25.0704 27.0501 25.0955C25.9489 25.1452 24.9832 24.9848 24.1529 24.6144C23.3299 24.2441 22.6887 23.6673 22.2295 22.8844C21.7704 22.1015 21.5432 21.1123 21.548 19.9167L21.5139 2.2445ZM36.9027 25.1704C35.8515 25.1725 34.9143 24.9725 34.0911 24.5703C33.268 24.1603 32.616 23.556 32.1353 22.7572C31.6618 21.9507 31.4239 20.9456 31.4216 19.742C31.4196 18.7287 31.586 17.8772 31.9208 17.1875C32.2556 16.498 32.7121 15.9429 33.2906 15.5221C33.8691 15.1013 34.5264 14.7832 35.2625 14.5679C36.0058 14.3527 36.785 14.2006 37.6 14.1118C38.5581 13.999 39.3302 13.8945 39.9163 13.7983C40.5025 13.6942 40.9277 13.5429 41.1919 13.3444C41.4561 13.1459 41.5879 12.8527 41.5872 12.4647L41.587 12.3935C41.5856 11.6413 41.3699 11.0598 40.94 10.6489C40.5173 10.2381 39.9162 10.0335 39.1367 10.0351C38.3144 10.0367 37.6605 10.24 37.1749 10.6448C36.6895 11.0417 36.3686 11.5411 36.2124 12.1432L31.9855 11.7718C32.1978 10.6629 32.6179 9.70395 33.2457 8.89506C33.8734 8.07827 34.6839 7.45111 35.677 7.01361C36.6773 6.56816 37.8353 6.3441 39.1512 6.34141C40.0664 6.33953 40.9426 6.4565 41.7798 6.69231C42.6241 6.92811 43.3721 7.29476 44.0238 7.79224C44.6827 8.2897 45.2024 8.92997 45.5828 9.71304C45.9634 10.4882 46.1547 11.4182 46.1568 12.5029L46.1805 24.8069L41.847 24.8158L41.8422 22.286L41.7134 22.2863C41.4499 22.8569 41.0969 23.3605 40.6544 23.7968C40.2119 24.2253 39.6797 24.5628 39.058 24.8096C38.4364 25.0483 37.7178 25.1687 36.9027 25.1704ZM38.2045 21.676C38.8768 21.6746 39.47 21.5268 39.9844 21.2328C40.4987 20.9309 40.9019 20.5263 41.1941 20.0191C41.4864 19.5116 41.6318 18.9373 41.6306 18.2959L41.6268 16.3601C41.4841 16.4633 41.2875 16.5588 41.0374 16.6464C40.7945 16.7261 40.5192 16.8019 40.212 16.8737C39.9045 16.9377 39.5972 16.9978 39.2898 17.0537C38.9823 17.1019 38.7036 17.146 38.4533 17.1862C37.9172 17.2744 37.4491 17.4138 37.049 17.6047C36.6489 17.7955 36.3384 18.0535 36.1172 18.3785C35.8961 18.6956 35.7861 19.0919 35.787 19.5669C35.7883 20.2557 36.0147 20.7817 36.4658 21.145C36.9242 21.5004 37.5038 21.6774 38.2045 21.676ZM49.7256 24.7996L49.6904 6.55736L54.1206 6.54828L54.1267 9.73117L54.2984 9.73082C54.5966 8.59799 55.099 7.74185 55.8059 7.16241C56.5127 6.57505 57.3273 6.28043 58.2498 6.27854C58.4787 6.27807 58.7255 6.2934 58.9901 6.32453C59.2547 6.35567 59.4873 6.39873 59.6876 6.45374L59.6962 10.9431C59.4815 10.8723 59.1847 10.8095 58.8056 10.7549C58.4264 10.7002 58.0795 10.6732 57.7648 10.6739C57.0927 10.6752 56.4924 10.8388 55.9637 11.1645C55.4423 11.4823 55.0284 11.9265 54.722 12.4972C54.4227 13.0679 54.2739 13.7254 54.2754 14.4696L54.2953 24.7903L49.7256 24.7996ZM62.1243 0.451127L67.8524 0.439397L73.9337 16.769L74.1911 16.7685L80.2095 0.414093L85.9374 0.402364L85.9843 24.7254L81.4792 24.7346L81.4487 8.90326L81.2663 8.90363L75.6116 24.6279L72.5437 24.6342L66.8282 8.8738L66.6457 8.87417L66.6764 24.7649L62.1713 24.7741L62.1243 0.451127ZM94.4242 25.0526C93.373 25.0547 92.4358 24.8548 91.6128 24.4525C90.7895 24.0425 90.1375 23.4382 89.657 22.6394C89.1834 21.8329 88.9455 20.8278 88.9432 19.6242C88.9413 18.6109 89.1075 17.7594 89.4423 17.0697C89.7771 16.3803 90.2338 15.8251 90.8121 15.4043C91.3906 14.9835 92.0479 14.6654 92.784 14.4501C93.5273 14.2349 94.3065 14.0828 95.1216 13.994C96.0796 13.8812 96.8518 13.7767 97.438 13.6805C98.0241 13.5764 98.4493 13.4251 98.7136 13.2266C98.9778 13.0281 99.1094 12.7349 99.1087 12.3469L99.1086 12.2757C99.1071 11.5235 98.8915 10.942 98.4617 10.5312C98.0389 10.1203 97.4379 9.91565 96.6584 9.91724C95.836 9.91893 95.182 10.1222 94.6966 10.527C94.211 10.9239 93.8901 11.4233 93.7341 12.0254L89.507 11.654C89.7194 10.5451 90.1395 9.58616 90.7672 8.77727C91.3949 7.96048 92.2054 7.33332 93.1985 6.89582C94.1988 6.45037 95.3569 6.22631 96.6727 6.22362C97.5881 6.22174 98.4643 6.33871 99.3014 6.57452C100.145 6.81032 100.893 7.17697 101.545 7.67445C102.204 8.17191 102.723 8.81218 103.104 9.59525C103.485 10.3704 103.676 11.3004 103.678 12.3851L103.702 24.6891L99.3686 24.698L99.3637 22.1682L99.2349 22.1685C98.9714 22.7391 98.6184 23.2427 98.1759 23.679C97.7334 24.1075 97.2013 24.445 96.5795 24.6918C95.9579 24.9305 95.2395 25.0509 94.4242 25.0526ZM95.7262 21.5582C96.3983 21.5568 96.9916 21.409 97.5059 21.115C98.0202 20.8131 98.4235 20.4085 98.7156 19.9013C99.0079 19.3938 99.1534 18.8195 99.1522 18.1781L99.1485 16.2423C99.0056 16.3456 98.8092 16.441 98.5591 16.5286C98.316 16.6083 98.0409 16.6841 97.7335 16.7559C97.4261 16.8199 97.1187 16.88 96.8113 16.9359C96.504 16.9841 96.2251 17.0282 95.975 17.0684C95.4387 17.1566 94.9706 17.296 94.5705 17.4869C94.1704 17.6777 93.8599 17.9357 93.6388 18.2607C93.4178 18.5778 93.3076 18.9741 93.3085 19.4491C93.3098 20.1379 93.5362 20.6639 93.9874 21.0272C94.4458 21.3826 95.0253 21.5596 95.7262 21.5582ZM111.769 0.349466L111.816 24.6725L107.247 24.6818L107.2 0.358823L111.769 0.349466ZM119.999 0.332613L120.046 24.6556L115.477 24.665L115.43 0.34197L119.999 0.332613Z" fill="#060606"/>
</g>
</g>
<defs>
<clipPath id="clip0_340_95">
<rect width="120" height="25" fill="white"/>
</clipPath>
</defs>
</svg>
