<svg width="120" height="25" viewBox="0 0 120 25" fill="none" xmlns="http://www.w3.org/2000/svg">
<g clip-path="url(#clip0_335_150)">
<path d="M12.6394 7.54764C12.5517 6.58978 12.182 5.84628 11.5302 5.31713C10.8785 4.78798 9.99479 4.52455 8.87922 4.52683C8.1212 4.52838 7.48141 4.64847 6.95984 4.88706C6.43825 5.11774 6.03842 5.43923 5.76032 5.85151C5.48936 6.2638 5.35441 6.73121 5.35541 7.25378C5.34195 7.68928 5.42491 8.06916 5.60432 8.39341C5.79088 8.71765 6.04529 8.9982 6.36754 9.23507C6.68979 9.46403 7.06203 9.66517 7.48428 9.83849C7.90651 10.0039 8.35731 10.1455 8.83666 10.2633L10.8114 10.7818C11.7701 11.0174 12.6502 11.3323 13.4519 11.7265C14.2537 12.1208 14.9482 12.6063 15.5358 13.1831C16.1233 13.7598 16.5787 14.4398 16.902 15.2229C17.2324 16.0062 17.4022 16.9045 17.4112 17.918C17.407 19.4065 17.0662 20.6977 16.3891 21.7918C15.719 22.8779 14.748 23.7231 13.4762 24.3274C12.2117 24.9238 10.6855 25.2239 8.89771 25.2276C7.12425 25.2312 5.57904 24.9334 4.26207 24.3344C2.95226 23.7354 1.92794 22.8467 1.1891 21.6685C0.457397 20.4823 0.0719768 19.0144 0.0328441 17.2647L4.52731 17.2555C4.57894 18.0709 4.7912 18.7513 5.16412 19.2969C5.54417 19.8346 6.0491 20.2413 6.67894 20.5171C7.3159 20.785 8.03485 20.9181 8.83576 20.9165C9.62239 20.9148 10.3051 20.7868 10.8838 20.5322C11.4697 20.2778 11.9231 19.9244 12.2441 19.4724C12.565 19.0204 12.7249 18.5016 12.7238 17.9157C12.7227 17.3693 12.5752 16.9104 12.2813 16.5389C11.9945 16.1673 11.572 15.8515 11.0137 15.5913C10.4626 15.3311 9.78635 15.0951 8.98502 14.883L6.5917 14.2227C4.7386 13.7277 3.2747 12.9508 2.19999 11.8921C1.12528 10.8333 0.58977 9.40526 0.593455 7.60794C0.58346 6.13528 0.934952 4.84794 1.64793 3.74593C2.36807 2.64389 3.35684 1.78279 4.61425 1.16264C5.87164 0.542493 7.30126 0.230776 8.90311 0.227496C10.5336 0.224157 11.9572 0.530031 13.1742 1.14511C14.3982 1.76018 15.3509 2.61731 16.0324 3.71647C16.7139 4.81563 17.0667 6.08965 17.0909 7.53853L12.6394 7.54764ZM29.1916 6.59926L29.1989 10.3997L19.2767 10.42L19.2694 6.61958L29.1916 6.59926ZM21.5135 2.24443L26.083 2.23508L26.1158 19.2422C26.1167 19.7093 26.1818 20.0734 26.3111 20.3343C26.4403 20.5875 26.6194 20.7653 26.8485 20.8677C27.0847 20.9701 27.3565 21.0211 27.6639 21.0205C27.8785 21.0201 28.0929 20.9999 28.3075 20.9597C28.5218 20.9119 28.6862 20.8758 28.8007 20.8519L29.5266 24.6153C29.2979 24.6948 28.9764 24.7865 28.5618 24.8904C28.1472 25.0021 27.6432 25.0703 27.0497 25.0954C25.9485 25.1451 24.9828 24.9847 24.1525 24.6143C23.3295 24.244 22.6883 23.6672 22.2291 22.8843C21.77 22.1014 21.5428 21.1122 21.5476 19.9166L21.5135 2.24443ZM36.9023 25.1703C35.8511 25.1724 34.9139 24.9724 34.0907 24.5702C33.2676 24.1602 32.6156 23.5559 32.1349 22.7571C31.6614 21.9506 31.4235 20.9455 31.4212 19.7419C31.4192 18.7286 31.5856 17.8771 31.9204 17.1874C32.2552 16.4979 32.7117 15.9428 33.2902 15.522C33.8687 15.1012 34.526 14.7831 35.2621 14.5678C36.0054 14.3526 36.7846 14.2005 37.5996 14.1117C38.5577 13.9989 39.3298 13.8944 39.9159 13.7982C40.5021 13.6941 40.9273 13.5428 41.1915 13.3443C41.4557 13.1458 41.5875 12.8526 41.5868 12.4646L41.5866 12.3934C41.5852 11.6412 41.3695 11.0597 40.9396 10.6488C40.5169 10.238 39.9158 10.0334 39.1363 10.035C38.314 10.0366 37.6601 10.2399 37.1745 10.6447C36.6891 11.0416 36.3682 11.541 36.212 12.1431L31.9851 11.7717C32.1974 10.6628 32.6175 9.70388 33.2453 8.89499C33.873 8.0782 34.6835 7.45104 35.6766 7.01354C36.6769 6.56809 37.8349 6.34403 39.1508 6.34134C40.066 6.33946 40.9422 6.45643 41.7794 6.69224C42.6237 6.92804 43.3717 7.29469 44.0234 7.79217C44.6823 8.28963 45.202 8.9299 45.5824 9.71297C45.963 10.4881 46.1543 11.4181 46.1564 12.5028L46.1801 24.8068L41.8466 24.8157L41.8418 22.2859L41.713 22.2862C41.4495 22.8568 41.0965 23.3604 40.654 23.7967C40.2115 24.2252 39.6793 24.5627 39.0576 24.8095C38.436 25.0482 37.7174 25.1686 36.9023 25.1703ZM38.2041 21.6759C38.8764 21.6745 39.4696 21.5267 39.984 21.2327C40.4983 20.9308 40.9015 20.5262 41.1937 20.019C41.486 19.5115 41.6314 18.9372 41.6302 18.2958L41.6264 16.36C41.4837 16.4632 41.2871 16.5587 41.037 16.6463C40.7941 16.726 40.5188 16.8018 40.2116 16.8736C39.9041 16.9376 39.5968 16.9977 39.2894 17.0536C38.9819 17.1018 38.7032 17.1459 38.4529 17.1861C37.9168 17.2743 37.4487 17.4137 37.0486 17.6046C36.6485 17.7954 36.338 18.0534 36.1168 18.3784C35.8957 18.6955 35.7857 19.0918 35.7866 19.5668C35.7879 20.2556 36.0143 20.7816 36.4654 21.1449C36.9238 21.5003 37.5034 21.6773 38.2041 21.6759ZM49.7252 24.7995L49.69 6.55729L54.1202 6.54821L54.1263 9.7311L54.298 9.73075C54.5962 8.59792 55.0986 7.74178 55.8055 7.16234C56.5123 6.57498 57.3269 6.28036 58.2494 6.27847C58.4783 6.278 58.7251 6.29333 58.9897 6.32446C59.2543 6.3556 59.4869 6.39866 59.6872 6.45367L59.6958 10.943C59.4811 10.8722 59.1843 10.8094 58.8052 10.7548C58.426 10.7001 58.0791 10.6731 57.7644 10.6738C57.0923 10.6751 56.492 10.8387 55.9633 11.1644C55.4419 11.4822 55.028 11.9264 54.7216 12.4971C54.4223 13.0678 54.2735 13.7253 54.275 14.4695L54.2949 24.7902L49.7252 24.7995ZM62.1239 0.451057L67.852 0.439327L73.9333 16.7689L74.1907 16.7684L80.2091 0.414023L85.937 0.402294L85.9839 24.7253L81.4788 24.7345L81.4483 8.90319L81.2659 8.90356L75.6112 24.6278L72.5433 24.6341L66.8278 8.87373L66.6453 8.8741L66.676 24.7648L62.1709 24.774L62.1239 0.451057ZM94.4238 25.0525C93.3726 25.0546 92.4354 24.8547 91.6124 24.4524C90.7891 24.0424 90.1371 23.4381 89.6566 22.6393C89.183 21.8328 88.9451 20.8277 88.9428 19.6241C88.9409 18.6108 89.1071 17.7593 89.4419 17.0696C89.7767 16.3802 90.2334 15.825 90.8117 15.4042C91.3902 14.9834 92.0475 14.6653 92.7836 14.45C93.5269 14.2348 94.3061 14.0827 95.1212 13.9939C96.0792 13.8811 96.8514 13.7766 97.4376 13.6804C98.0237 13.5763 98.4489 13.425 98.7132 13.2265C98.9774 13.028 99.109 12.7348 99.1083 12.3468L99.1082 12.2756C99.1067 11.5234 98.8911 10.9419 98.4613 10.5311C98.0385 10.1202 97.4375 9.91558 96.658 9.91717C95.8356 9.91886 95.1816 10.1221 94.6962 10.5269C94.2106 10.9238 93.8897 11.4232 93.7337 12.0253L89.5066 11.6539C89.719 10.545 90.1391 9.58609 90.7668 8.7772C91.3945 7.96041 92.205 7.33325 93.1981 6.89575C94.1984 6.4503 95.3565 6.22624 96.6723 6.22355C97.5877 6.22167 98.4639 6.33864 99.301 6.57445C100.145 6.81025 100.893 7.1769 101.545 7.67438C102.204 8.17184 102.723 8.81211 103.104 9.59518C103.485 10.3703 103.676 11.3003 103.678 12.385L103.702 24.689L99.3682 24.6979L99.3633 22.1681L99.2345 22.1684C98.971 22.739 98.618 23.2426 98.1755 23.6789C97.733 24.1074 97.2009 24.4449 96.5791 24.6917C95.9575 24.9304 95.2391 25.0508 94.4238 25.0525ZM95.7258 21.5581C96.3979 21.5567 96.9912 21.4089 97.5055 21.1149C98.0198 20.813 98.4231 20.4084 98.7152 19.9012C99.0075 19.3937 99.153 18.8194 99.1518 18.178L99.1481 16.2422C99.0052 16.3455 98.8088 16.4409 98.5587 16.5285C98.3156 16.6082 98.0405 16.684 97.7331 16.7558C97.4257 16.8198 97.1183 16.8799 96.8109 16.9358C96.5036 16.984 96.2247 17.0281 95.9746 17.0683C95.4383 17.1565 94.9702 17.2959 94.5701 17.4868C94.17 17.6776 93.8595 17.9356 93.6384 18.2606C93.4174 18.5777 93.3072 18.974 93.3081 19.449C93.3094 20.1378 93.5358 20.6638 93.987 21.0271C94.4454 21.3825 95.0249 21.5595 95.7258 21.5581ZM111.769 0.349396L111.816 24.6724L107.247 24.6817L107.2 0.358753L111.769 0.349396ZM119.999 0.332543L120.046 24.6555L115.477 24.6649L115.43 0.3419L119.999 0.332543Z" fill="#DC4EF3"/>
</g>
<defs>
<clipPath id="clip0_335_150">
<rect width="120" height="25" fill="white"/>
</clipPath>
</defs>
</svg>
