<svg width="80" height="25" viewBox="0 0 80 25" fill="none" xmlns="http://www.w3.org/2000/svg">
<rect width="80" height="25" fill="white"/>
<path d="M3.95312 19H2.56108L7.85227 4.45455H9.27273L14.5639 19H13.1719L8.61222 6.1804H8.51278L3.95312 19ZM4.95455 13.4247H12.1705V14.6179H4.95455V13.4247Z" fill="#F80808"/>
<path d="M16.794 23.0909V8.09091H18.0227V10.1719H18.1719C18.3234 9.84517 18.5317 9.51136 18.7969 9.17045C19.062 8.82481 19.4124 8.53362 19.848 8.29688C20.2884 8.06013 20.8423 7.94176 21.5099 7.94176C22.4096 7.94176 23.1955 8.1785 23.8679 8.65199C24.545 9.12074 25.0705 9.77888 25.4446 10.6264C25.8234 11.4692 26.0128 12.4517 26.0128 13.5739C26.0128 14.7008 25.8234 15.688 25.4446 16.5355C25.0705 17.383 24.545 18.0436 23.8679 18.517C23.1955 18.9905 22.4143 19.2273 21.5241 19.2273C20.866 19.2273 20.3144 19.1089 19.8693 18.8722C19.429 18.6354 19.0715 18.3442 18.7969 17.9986C18.527 17.6482 18.3187 17.3073 18.1719 16.9759H18.0582V23.0909H16.794ZM18.044 13.5526C18.044 14.4332 18.1742 15.2145 18.4347 15.8963C18.6998 16.5734 19.0786 17.1061 19.571 17.4943C20.0682 17.8778 20.6695 18.0696 21.375 18.0696C22.0994 18.0696 22.7102 17.8707 23.2074 17.473C23.7093 17.0705 24.0904 16.5284 24.3509 15.8466C24.616 15.1648 24.7486 14.4001 24.7486 13.5526C24.7486 12.7145 24.6184 11.9593 24.358 11.2869C24.1023 10.6146 23.7235 10.0819 23.2216 9.68892C22.7197 9.29119 22.1042 9.09233 21.375 9.09233C20.6648 9.09233 20.0611 9.28409 19.5639 9.66761C19.0668 10.0464 18.688 10.572 18.4276 11.2443C18.1719 11.9119 18.044 12.6813 18.044 13.5526ZM28.7862 23.0909V8.09091H30.0149V10.1719H30.1641C30.3156 9.84517 30.5239 9.51136 30.7891 9.17045C31.0542 8.82481 31.4046 8.53362 31.8402 8.29688C32.2805 8.06013 32.8345 7.94176 33.5021 7.94176C34.4018 7.94176 35.1877 8.1785 35.8601 8.65199C36.5372 9.12074 37.0627 9.77888 37.4368 10.6264C37.8156 11.4692 38.005 12.4517 38.005 13.5739C38.005 14.7008 37.8156 15.688 37.4368 16.5355C37.0627 17.383 36.5372 18.0436 35.8601 18.517C35.1877 18.9905 34.4065 19.2273 33.5163 19.2273C32.8582 19.2273 32.3066 19.1089 31.8615 18.8722C31.4212 18.6354 31.0637 18.3442 30.7891 17.9986C30.5192 17.6482 30.3108 17.3073 30.1641 16.9759H30.0504V23.0909H28.7862ZM30.0362 13.5526C30.0362 14.4332 30.1664 15.2145 30.4268 15.8963C30.692 16.5734 31.0708 17.1061 31.5632 17.4943C32.0604 17.8778 32.6617 18.0696 33.3672 18.0696C34.0916 18.0696 34.7024 17.8707 35.1996 17.473C35.7015 17.0705 36.0826 16.5284 36.343 15.8466C36.6082 15.1648 36.7408 14.4001 36.7408 13.5526C36.7408 12.7145 36.6106 11.9593 36.3501 11.2869C36.0945 10.6146 35.7157 10.0819 35.2138 9.68892C34.7119 9.29119 34.0964 9.09233 33.3672 9.09233C32.657 9.09233 32.0533 9.28409 31.5561 9.66761C31.0589 10.0464 30.6802 10.572 30.4197 11.2443C30.1641 11.9119 30.0362 12.6813 30.0362 13.5526ZM45.7443 19V12.4545H46.5071V19H45.7443ZM46.1321 11.3295C45.9759 11.3295 45.8423 11.277 45.7315 11.1719C45.6207 11.0639 45.5653 10.9347 45.5653 10.7841C45.5653 10.6335 45.6207 10.5057 45.7315 10.4006C45.8423 10.2926 45.9759 10.2386 46.1321 10.2386C46.2884 10.2386 46.4219 10.2926 46.5327 10.4006C46.6435 10.5057 46.6989 10.6335 46.6989 10.7841C46.6989 10.9347 46.6435 11.0639 46.5327 11.1719C46.4219 11.277 46.2884 11.3295 46.1321 11.3295ZM49.2717 14.9091V19H48.5131V12.4545H49.2504V13.4815H49.3185C49.4719 13.1463 49.7106 12.8778 50.0344 12.6761C50.3612 12.4716 50.7646 12.3693 51.2447 12.3693C51.685 12.3693 52.0714 12.4616 52.4038 12.6463C52.739 12.8281 52.9989 13.0966 53.1836 13.4517C53.3711 13.8068 53.4648 14.2429 53.4648 14.7599V19H52.7063V14.8068C52.7063 14.2699 52.5558 13.8452 52.2546 13.5327C51.9563 13.2202 51.5558 13.0639 51.0529 13.0639C50.7092 13.0639 50.4038 13.1378 50.1367 13.2855C49.8697 13.4332 49.658 13.6463 49.5018 13.9247C49.3484 14.2003 49.2717 14.5284 49.2717 14.9091ZM59.8601 13.8906L59.1655 14.0866C59.0973 13.8906 59.0007 13.7131 58.8757 13.554C58.7507 13.3949 58.5874 13.2685 58.3857 13.1747C58.1868 13.081 57.9396 13.0341 57.6442 13.0341C57.201 13.0341 56.8374 13.1392 56.5533 13.3494C56.2692 13.5597 56.1271 13.831 56.1271 14.1634C56.1271 14.4446 56.2237 14.6733 56.4169 14.8494C56.6129 15.0227 56.9141 15.1605 57.3203 15.2628L58.3089 15.5057C58.8572 15.6392 59.2678 15.8509 59.5405 16.1406C59.8161 16.4304 59.9538 16.794 59.9538 17.2315C59.9538 17.6009 59.8516 17.929 59.647 18.2159C59.4425 18.5028 59.157 18.7287 58.7905 18.8935C58.4268 19.0554 58.005 19.1364 57.5249 19.1364C56.8857 19.1364 56.3587 18.9929 55.9439 18.706C55.5291 18.4162 55.2635 17.9986 55.147 17.4531L55.8757 17.2741C55.9695 17.6634 56.1527 17.9574 56.4254 18.1562C56.701 18.3551 57.0632 18.4545 57.5121 18.4545C58.0149 18.4545 58.4169 18.3423 58.718 18.1179C59.0192 17.8906 59.1697 17.6065 59.1697 17.2656C59.1697 17.0014 59.0817 16.7798 58.9055 16.6009C58.7294 16.419 58.4624 16.2855 58.1044 16.2003L57.0348 15.9446C56.4666 15.8082 56.0462 15.5923 55.7734 15.2969C55.5007 15.0014 55.3643 14.6349 55.3643 14.1974C55.3643 13.8366 55.4624 13.5199 55.6584 13.2472C55.8544 12.9716 56.1243 12.7557 56.468 12.5994C56.8118 12.4432 57.2038 12.3651 57.6442 12.3651C58.2436 12.3651 58.7223 12.5014 59.0803 12.7741C59.4411 13.044 59.701 13.4162 59.8601 13.8906ZM64.1928 12.4545V13.1151H61.0692V12.4545H64.1928ZM62.0451 10.8864H62.8079V17.2912C62.8079 17.5639 62.8548 17.7784 62.9485 17.9347C63.0423 18.0881 63.1644 18.1974 63.315 18.2628C63.4656 18.3253 63.6261 18.3565 63.7965 18.3565C63.896 18.3565 63.9812 18.3509 64.0522 18.3395C64.1232 18.3253 64.1857 18.3111 64.2397 18.2969L64.4016 18.983C64.3278 19.0114 64.2369 19.0369 64.1289 19.0597C64.021 19.0852 63.8874 19.098 63.7283 19.098C63.4499 19.098 63.1815 19.0369 62.9229 18.9148C62.6673 18.7926 62.457 18.6108 62.2923 18.3693C62.1275 18.1278 62.0451 17.8281 62.0451 17.4702V10.8864ZM67.7436 19.1491C67.3487 19.1491 66.9879 19.0724 66.6612 18.919C66.3345 18.7628 66.0746 18.5384 65.8814 18.2457C65.6882 17.9503 65.5916 17.5923 65.5916 17.1719C65.5916 16.848 65.6527 16.5753 65.7749 16.3537C65.897 16.1321 66.0703 15.9503 66.2947 15.8082C66.5192 15.6662 66.7848 15.554 67.0916 15.4716C67.3984 15.3892 67.7365 15.3253 68.1058 15.2798C68.4723 15.2344 68.782 15.1946 69.0348 15.1605C69.2905 15.1264 69.4851 15.0724 69.6186 14.9986C69.7521 14.9247 69.8189 14.8054 69.8189 14.6406V14.4872C69.8189 14.0412 69.6854 13.6903 69.4183 13.4347C69.1541 13.1761 68.7734 13.0469 68.2763 13.0469C67.8047 13.0469 67.4197 13.1506 67.1214 13.358C66.826 13.5653 66.6186 13.8097 66.4993 14.0909L65.7791 13.831C65.9268 13.473 66.1314 13.1875 66.3928 12.9744C66.6541 12.7585 66.9467 12.6037 67.2706 12.5099C67.5945 12.4134 67.9226 12.3651 68.255 12.3651C68.505 12.3651 68.7649 12.3977 69.0348 12.4631C69.3075 12.5284 69.5604 12.642 69.7933 12.804C70.0263 12.9631 70.2152 13.1861 70.3601 13.473C70.505 13.7571 70.5774 14.1179 70.5774 14.5554V19H69.8189V17.9645H69.772C69.6811 18.1577 69.5462 18.3452 69.3672 18.527C69.1882 18.7088 68.9638 18.858 68.6939 18.9744C68.424 19.0909 68.1072 19.1491 67.7436 19.1491ZM67.8459 18.4545C68.2493 18.4545 68.5987 18.3651 68.8942 18.1861C69.1896 18.0071 69.4169 17.7699 69.576 17.4744C69.7379 17.1761 69.8189 16.848 69.8189 16.4901V15.544C69.7621 15.598 69.6669 15.6463 69.5334 15.6889C69.4027 15.7315 69.2507 15.7699 69.0774 15.804C68.907 15.8352 68.7365 15.8622 68.5661 15.8849C68.3956 15.9077 68.2422 15.9276 68.1058 15.9446C67.7365 15.9901 67.4212 16.0611 67.1598 16.1577C66.8984 16.2543 66.6982 16.3878 66.5589 16.5582C66.4197 16.7259 66.3501 16.9418 66.3501 17.206C66.3501 17.6037 66.4922 17.9119 66.7763 18.1307C67.0604 18.3466 67.4169 18.4545 67.8459 18.4545ZM73.3537 10.2727V19H72.5952V10.2727H73.3537ZM76.1193 10.2727V19H75.3608V10.2727H76.1193Z" fill="black"/>
</svg>
